<?xml version="1.0" standalone="no"?>
<!DOCTYPE svg PUBLIC "-//W3C//DTD SVG 20010904//EN"
 "http://www.w3.org/TR/2001/REC-SVG-20010904/DTD/svg10.dtd">
<svg version="1.0" xmlns="http://www.w3.org/2000/svg"
 width="512.000000pt" height="512.000000pt" viewBox="0 0 512.000000 512.000000"
 preserveAspectRatio="xMidYMid meet">
<metadata>
Created by potrace 1.14, written by Peter Selinger 2001-2017
</metadata>
<g transform="translate(0.000000,512.000000) scale(0.100000,-0.100000)"
fill="#000000" stroke="none">
<path d="M2354 5109 c-491 -37 -968 -224 -1374 -537 -109 -85 -347 -323 -432
-432 -263 -342 -439 -737 -508 -1145 -122 -716 60 -1434 509 -2015 80 -104
309 -336 410 -415 369 -291 775 -466 1241 -537 194 -30 529 -30 725 0 456 70
852 240 1215 521 104 80 336 309 416 411 292 371 476 804 540 1270 24 170 24
501 0 665 -57 399 -192 758 -404 1075 -521 782 -1402 1211 -2338 1139z m811
-868 l30 -6 5 -265 c5 -288 7 -295 67 -352 57 -54 80 -58 352 -58 l250 0 6
-32 c3 -18 4 -580 3 -1248 l-3 -1215 -22 -41 c-28 -53 -91 -107 -142 -122 -28
-9 -338 -12 -1162 -12 l-1124 0 -50 24 c-58 27 -107 78 -126 133 -12 31 -14
300 -14 1528 l0 1491 25 48 c31 61 85 105 147 122 37 10 233 13 888 12 462 0
854 -3 870 -7z m453 -559 c-214 -3 -240 0 -268 35 -19 24 -20 39 -20 232 l0
206 235 -235 235 -235 -182 -3z"/>
<path d="M1894 3939 c-50 -12 -118 -68 -144 -120 -24 -47 -26 -134 -4 -187 80
-192 362 -175 420 26 38 130 -36 253 -167 281 -27 6 -53 11 -57 10 -4 -1 -25
-5 -48 -10z"/>
<path d="M1832 3439 c-61 -12 -140 -50 -188 -92 -96 -84 -163 -302 -119 -388
52 -100 278 -160 522 -139 215 19 333 90 333 199 0 52 -30 182 -52 224 -30 60
-105 134 -162 161 -89 42 -226 57 -334 35z"/>
</g>
</svg>
